<svg width="17" height="16" viewBox="0 0 17 16" fill="none" xmlns="http://www.w3.org/2000/svg">
<g id="Layer 2">
<g id="rupee">
<path id="Vector" d="M8.10474 0C3.68661 0 0.104736 3.58187 0.104736 8C0.104736 12.4181 3.68661 16 8.10474 16C12.5229 16 16.1047 12.4181 16.1047 8C16.1047 3.58187 12.5229 0 8.10474 0ZM10.9594 6.68031H9.89005C9.58411 7.99781 8.41099 8.93094 7.05849 8.9325H6.75286L9.38755 11.7697C9.62036 12.0475 9.58411 12.4612 9.3063 12.6941C9.04817 12.9103 8.66817 12.8963 8.42692 12.6616L4.77067 8.72406C4.52505 8.45781 4.54161 8.0425 4.80786 7.79688C4.92849 7.68563 5.0863 7.62344 5.25067 7.62281H7.05911C7.68724 7.62281 8.25692 7.25406 8.51474 6.68125H5.85474C5.49286 6.66188 5.21505 6.35281 5.23442 5.99094C5.25224 5.65594 5.51974 5.38875 5.85474 5.37063H8.51099C8.25255 4.79969 7.6838 4.43313 7.05724 4.43313H5.25005C4.88817 4.41375 4.61036 4.10469 4.62974 3.74281C4.64755 3.40781 4.91505 3.14062 5.25005 3.1225H10.9569C11.3188 3.10312 11.6279 3.38094 11.6472 3.74281C11.6666 4.10469 11.3888 4.41375 11.0269 4.43313C11.0035 4.43437 10.98 4.43437 10.9569 4.43313H9.4863C9.67505 4.71938 9.81161 5.03687 9.88942 5.37063H10.9594C11.3213 5.39 11.5991 5.69906 11.5797 6.06094C11.5619 6.39594 11.2944 6.66313 10.9594 6.68125V6.68031Z" fill="#ffffff"/>
</g>
</g>
</svg>
