<svg width="16" height="17" viewBox="0 0 16 17" fill="none" xmlns="http://www.w3.org/2000/svg">
<path id="Vector" d="M15.6532 13.1878C15.1539 12.7689 12.2246 10.9143 11.7379 10.9993C11.5093 11.04 11.3343 11.2346 10.8664 11.7928C10.65 12.0675 10.4121 12.325 10.1557 12.5625C9.68536 12.4489 9.23 12.28 8.79929 12.0596C7.10964 11.2371 5.74464 9.87176 4.92286 8.18176C4.7025 7.75105 4.53357 7.29569 4.42 6.82533C4.6575 6.56855 4.915 6.33105 5.18964 6.11462C5.7475 5.64676 5.94286 5.47283 5.98321 5.24319C6.06821 4.75533 4.21179 1.82712 3.79464 1.32783C3.61964 1.12105 3.46107 0.982117 3.2575 0.982117C2.6675 0.982117 0 4.28033 0 4.70783C0 4.74283 0.0571428 8.1764 4.39357 12.5885C8.80571 16.925 12.2393 16.9821 12.2743 16.9821C12.7018 16.9821 16 14.3146 16 13.725C16 13.5214 15.8611 13.3628 15.6532 13.1878Z" fill="white"/>
</svg>
