<?xml version="1.0" standalone="no"?>
<!DOCTYPE svg PUBLIC "-//W3C//DTD SVG 20010904//EN"
 "http://www.w3.org/TR/2001/REC-SVG-20010904/DTD/svg10.dtd">
<svg version="1.0" xmlns="http://www.w3.org/2000/svg"
 width="512.000000pt" height="512.000000pt" viewBox="0 0 512.000000 512.000000"
 preserveAspectRatio="xMidYMid meet">

<g transform="translate(0.000000,512.000000) scale(0.100000,-0.100000)"
fill="#ffffff" stroke="none">
<path d="M2007 5109 c-141 -33 -259 -159 -287 -308 -6 -35 -10 -681 -10 -1860
l0 -1807 23 -44 c13 -26 36 -53 57 -65 35 -20 51 -20 1320 -23 864 -2 1308 1
1355 8 135 20 237 96 298 220 l32 65 3 1739 c3 1936 7 1809 -66 1916 -48 71
-121 125 -201 150 -62 20 -93 20 -1275 19 -666 -1 -1228 -5 -1249 -10z m2213
-499 c26 -13 47 -34 60 -60 19 -38 20 -58 20 -495 0 -437 -1 -457 -20 -495
-13 -26 -34 -47 -60 -60 -39 -20 -52 -20 -974 -18 -926 3 -935 3 -962 24 -15
11 -37 33 -48 48 -20 27 -21 41 -24 464 -2 240 0 456 3 479 7 49 45 100 90
119 24 11 208 13 953 14 906 0 924 0 962 -20z m0 -1450 c45 -23 80 -80 80
-130 0 -50 -35 -107 -80 -130 -38 -20 -57 -20 -959 -20 -625 0 -929 3 -948 11
-128 48 -130 227 -3 278 16 6 361 10 948 10 906 1 924 1 962 -19z m-400 -500
c45 -23 80 -80 80 -130 0 -50 -35 -107 -80 -130 -38 -19 -57 -20 -759 -20
-484 0 -729 3 -748 11 -128 48 -130 227 -3 278 16 6 294 10 748 10 705 1 724
1 762 -19z m170 -498 c107 -53 107 -211 0 -264 -32 -17 -94 -18 -842 -18 -546
0 -816 3 -835 11 -128 48 -130 227 -3 278 16 6 323 10 835 10 752 1 812 0 845
-17z m-1109 -504 c41 -23 79 -84 79 -128 0 -44 -38 -105 -79 -128 -37 -21 -50
-22 -289 -22 -265 0 -288 3 -335 48 -74 71 -45 202 53 241 14 5 136 10 279 10
242 1 255 0 292 -21z"/>
<path d="M2510 4055 l0 -275 745 0 745 0 0 275 0 275 -745 0 -745 0 0 -275z"/>
<path d="M640 4309 c-121 -20 -229 -103 -284 -219 l-31 -65 -3 -1845 c-2
-1825 -2 -1846 18 -1910 37 -121 129 -213 250 -250 64 -20 87 -20 1222 -18
l1156 3 -681 390 c-502 287 -696 403 -735 439 -63 59 -118 164 -132 251 -6 37
-10 664 -10 1648 l0 1587 -357 -1 c-197 -1 -383 -5 -413 -10z"/>
<path d="M2415 681 c72 -45 976 -551 985 -551 6 0 10 106 10 285 l0 285 -512
0 c-506 0 -513 -1 -483 -19z"/>
</g>
</svg>
